<svg width="34" height="34" viewBox="0 0 34 34" fill="none" xmlns="http://www.w3.org/2000/svg">
<path d="M8.49967 19.8333H25.4997V16.9999H8.49967V19.8333ZM8.49967 15.5833H25.4997V12.7499H8.49967V15.5833ZM8.49967 11.3333H25.4997V8.49992H8.49967V11.3333ZM31.1663 31.1666L25.4997 25.4999H5.66634C4.88717 25.4999 4.22016 25.2225 3.6653 24.6676C3.11044 24.1128 2.83301 23.4458 2.83301 22.6666V5.66659C2.83301 4.88742 3.11044 4.2204 3.6653 3.66554C4.22016 3.11068 4.88717 2.83325 5.66634 2.83325H28.333C29.1122 2.83325 29.7792 3.11068 30.3341 3.66554C30.8889 4.2204 31.1663 4.88742 31.1663 5.66659V31.1666ZM5.66634 22.6666H26.7038L28.333 24.2603V5.66659H5.66634V22.6666Z" fill="white"/>
</svg>
