<svg width="24" height="21" viewBox="0 0 24 21" fill="none" xmlns="http://www.w3.org/2000/svg">
<path d="M11.6211 20.3125L0 7.86133L3.75 2.14844L7.80273 0H15.4395L19.4922 2.14844L23.2422 7.86133L11.6211 20.3125ZM10.6641 18.125L7.72461 11.377L1.81641 8.7207L10.6641 18.125ZM7.46094 10.4688L6.18164 5.88867L1.46484 7.82227L7.46094 10.4688ZM11.6211 18.6035L14.6582 11.4648H8.58398L11.6211 18.6035ZM1.42578 7.07031L5.86914 5.24414L4.04297 3.07617L1.42578 7.07031ZM8.17383 10.3516L10.9473 6.82617L6.91406 5.86914L8.17383 10.3516ZM8.82812 10.7422H14.4238L11.6211 7.20703L8.82812 10.7422ZM12.5781 18.125L21.4258 8.7207L15.5176 11.377L12.5781 18.125ZM15.0684 10.3516L16.3281 5.86914L12.2949 6.82617L15.0684 10.3516ZM11.6211 6.25977L16.5527 5.07812L18.6621 2.54883L15.2246 0.712891H8.01758L4.58984 2.54883L6.68945 5.07812L11.6211 6.25977ZM15.7812 10.4688L21.7773 7.82227L17.0605 5.88867L15.7812 10.4688ZM21.8262 7.07031L19.209 3.07617L17.3828 5.24414L21.8262 7.07031Z" fill="black"/>
</svg>
